<svg xmlns="http://www.w3.org/2000/svg" width="19.5" height="27" viewBox="0 0 19.5 27"><defs><style>.cls-1{fill:#fff;fill-rule:evenodd;filter:url(#filter)}</style><filter id="filter" x="1162.78" y="147" width="19.5" height="27" filterUnits="userSpaceOnUse"><feOffset result="offset" dy="1" in="SourceAlpha"/><feGaussianBlur result="blur"/><feFlood result="flood" flood-color="#fff"/><feComposite result="composite" operator="in" in2="blur"/><feBlend result="blend" in="SourceGraphic"/><feFlood result="flood-2" flood-color="#7d7d7d"/><feComposite result="composite-2" operator="in" in2="SourceGraphic"/><feBlend result="blend-2" in2="blend"/></filter></defs><path id="Shape_3_copy" data-name="Shape 3 copy" class="cls-1" d="M1181.62 173h-18.16a.685.685 0 0 1-.68-.684v-24.632a.685.685 0 0 1 .68-.684h12.11a.686.686 0 0 1 .47.2l6.05 6.158h.01a.679.679 0 0 1 .19.478v18.474a.677.677 0 0 1-.67.69zm-17.49-1.368h16.81v-17.106h-5.38a.677.677 0 0 1-.67-.684v-5.473h-10.76v23.263zm12.11-18.474h3.75l-3.75-3.822v3.822zm2.35 14.71h-12.11a.684.684 0 0 1 0-1.368h12.11a.684.684 0 0 1 0 1.368zm0-3.078h-12.11a.685.685 0 0 1 0-1.369h12.11a.685.685 0 0 1 0 1.369zm-6.05-3.079h-6.06a.685.685 0 0 1 0-1.369h6.06a.685.685 0 0 1 0 1.369zm-.48-7.185h-5.58a.677.677 0 0 1-.67-.684v-3.079a.677.677 0 0 1 .67-.684h5.58a.679.679 0 0 1 .68.684v3.079a.679.679 0 0 1-.68.684zm-4.9-1.368h4.23v-1.711h-4.23v1.711z" transform="translate(-1162.78 -147)"/></svg>