<svg xmlns="http://www.w3.org/2000/svg" width="25.531" height="24.625" viewBox="0 0 25.531 24.625"><defs><style>.cls-1{fill:#fff;fill-rule:evenodd;filter:url(#filter)}</style><filter id="filter" x="544.125" y="148.375" width="25.531" height="24.625" filterUnits="userSpaceOnUse"><feOffset result="offset" dy="1" in="SourceAlpha"/><feGaussianBlur result="blur"/><feFlood result="flood" flood-color="#fff"/><feComposite result="composite" operator="in" in2="blur"/><feBlend result="blend" in="SourceGraphic"/><feFlood result="flood-2" flood-color="#701dbb"/><feComposite result="composite-2" operator="in" in2="SourceGraphic"/><feBlend result="blend-2" in2="blend"/></filter></defs><path class="cls-1" d="M6.841 22.91a.667.667 0 0 1-.219-.037.68.68 0 0 1-.453-.628l-.121-5.857L.37 13.516a.7.7 0 0 1-.06-.033.785.785 0 0 1-.066-.047.683.683 0 0 1-.23-.358.474.474 0 0 1-.015-.075.681.681 0 0 1 .1-.468.188.188 0 0 1 .016-.023.662.662 0 0 1 .258-.219L24.539.071a.635.635 0 0 1 .124-.051.626.626 0 0 1 .111-.023.66.66 0 0 1 .221.01.667.667 0 0 1 .212.086.7.7 0 0 1 .175.158.667.667 0 0 1 .106.2.787.787 0 0 1 .031.125.719.719 0 0 1-.007.24.676.676 0 0 1-.047.142l-9.06 21.384a.68.68 0 0 1-.121.2l-.025.027a.666.666 0 0 1-.448.2h-.021a.022.022 0 0 1-.008 0 .657.657 0 0 1-.387-.124l-5.121-3.571-2.915 3.6a.669.669 0 0 1-.518.236zm4.3-4.891l3.937 2.746-.177-7.216zm-3.752-1.742l.084 4.1 2.153-2.655.006-.007 9.626-11.442-5.422 4.571-.031.025zm8.819-4.281l.17 6.954 6.109-14.417zM2.714 13.183l3.9 1.974 4.314-3.636zm17.262-9.287L5.45 11.243l7.645-1.547z"/></svg>