<svg xmlns="http://www.w3.org/2000/svg" width="16.469" height="27" viewBox="0 0 16.469 27"><defs><style>.cls-1{fill:#fff;fill-rule:evenodd;filter:url(#filter)}</style><filter id="filter" x="870.531" y="147" width="16.469" height="27" filterUnits="userSpaceOnUse"><feOffset result="offset" dy="1" in="SourceAlpha"/><feGaussianBlur result="blur"/><feFlood result="flood" flood-color="#fff"/><feComposite result="composite" operator="in" in2="blur"/><feBlend result="blend" in="SourceGraphic"/><feFlood result="flood-2" flood-color="#7d7d7d"/><feComposite result="composite-2" operator="in" in2="SourceGraphic"/><feBlend result="blend-2" in2="blend"/></filter></defs><path class="cls-1" d="M8.225 25.316a.671.671 0 0 1-.594-.362L.686 11.72a.444.444 0 0 1-.024-.049 8.239 8.239 0 1 1 15.092.079c-.007.015-.013.029-.021.043L8.819 24.955a.672.672 0 0 1-.594.361zM1.886 11.1l6.34 12.079 6.309-12.009a7.023 7.023 0 0 0 .584-2.822 6.895 6.895 0 1 0-13.788 0 7.026 7.026 0 0 0 .555 2.752zm6.339 1.308a4.365 4.365 0 1 1 4.305-4.365 4.34 4.34 0 0 1-4.305 4.369zm0-7.366a3 3 0 1 0 2.96 3 2.984 2.984 0 0 0-2.96-2.996z"/></svg>